<mxfile host="app.diagrams.net" modified="2022-10-14T19:32:28.723Z" agent="5.0 (Windows NT 10.0; Win64; x64) AppleWebKit/537.36 (KHTML, like Gecko) Chrome/106.0.0.0 Safari/537.36" etag="5TF9lqR3ujIYsAX0NHRx" version="20.4.1" type="github">
  <diagram id="P2JkW2iTQmZUSIbnCeEx" name="Page-1">
    <mxGraphModel dx="758" dy="692" grid="1" gridSize="10" guides="1" tooltips="1" connect="1" arrows="1" fold="1" page="1" pageScale="1" pageWidth="850" pageHeight="1100" math="0" shadow="0">
      <root>
        <mxCell id="0" />
        <mxCell id="1" parent="0" />
        <mxCell id="qnYkJQ-oDUxNmd9Kcons-1" value="" style="rounded=0;whiteSpace=wrap;html=1;shadow=1;" vertex="1" parent="1">
          <mxGeometry x="270" y="160" width="390" height="80" as="geometry" />
        </mxCell>
        <mxCell id="qnYkJQ-oDUxNmd9Kcons-2" value="" style="rounded=0;whiteSpace=wrap;html=1;shadow=1;glass=0;" vertex="1" parent="1">
          <mxGeometry x="270" y="280" width="390" height="80" as="geometry" />
        </mxCell>
        <mxCell id="qnYkJQ-oDUxNmd9Kcons-3" value="" style="rounded=0;whiteSpace=wrap;html=1;shadow=1;" vertex="1" parent="1">
          <mxGeometry x="270" y="400" width="390" height="80" as="geometry" />
        </mxCell>
        <mxCell id="qnYkJQ-oDUxNmd9Kcons-4" value="" style="rounded=0;whiteSpace=wrap;html=1;shadow=1;" vertex="1" parent="1">
          <mxGeometry x="270" y="610" width="390" height="80" as="geometry" />
        </mxCell>
        <mxCell id="qnYkJQ-oDUxNmd9Kcons-5" value="Login" style="text;html=1;strokeColor=none;fillColor=none;align=center;verticalAlign=middle;whiteSpace=wrap;rounded=0;shadow=1;" vertex="1" parent="1">
          <mxGeometry x="280" y="304.44" width="60" height="30" as="geometry" />
        </mxCell>
        <mxCell id="qnYkJQ-oDUxNmd9Kcons-6" style="edgeStyle=orthogonalEdgeStyle;rounded=0;orthogonalLoop=1;jettySize=auto;html=1;exitX=0.5;exitY=1;exitDx=0;exitDy=0;" edge="1" parent="1">
          <mxGeometry relative="1" as="geometry">
            <mxPoint x="455" y="359.44" as="sourcePoint" />
            <mxPoint x="455" y="359.44" as="targetPoint" />
          </mxGeometry>
        </mxCell>
        <mxCell id="qnYkJQ-oDUxNmd9Kcons-7" value="Search Providers" style="text;html=1;strokeColor=none;fillColor=none;align=center;verticalAlign=middle;whiteSpace=wrap;rounded=0;shadow=1;" vertex="1" parent="1">
          <mxGeometry x="355" y="304.44" width="60" height="30" as="geometry" />
        </mxCell>
        <mxCell id="qnYkJQ-oDUxNmd9Kcons-8" value="Chatbot&lt;br&gt;Help" style="text;html=1;align=center;verticalAlign=middle;resizable=0;points=[];autosize=1;strokeColor=none;fillColor=none;" vertex="1" parent="1">
          <mxGeometry x="430" y="299.44" width="70" height="40" as="geometry" />
        </mxCell>
        <mxCell id="qnYkJQ-oDUxNmd9Kcons-9" value="Telemedicene" style="text;html=1;strokeColor=none;fillColor=none;align=center;verticalAlign=middle;whiteSpace=wrap;rounded=0;shadow=1;glass=1;" vertex="1" parent="1">
          <mxGeometry x="510" y="304.44" width="60" height="30" as="geometry" />
        </mxCell>
        <mxCell id="qnYkJQ-oDUxNmd9Kcons-10" value="Shannon App" style="text;html=1;align=center;verticalAlign=middle;resizable=0;points=[];autosize=1;strokeColor=none;fillColor=none;" vertex="1" parent="1">
          <mxGeometry x="335" y="185" width="100" height="30" as="geometry" />
        </mxCell>
        <mxCell id="qnYkJQ-oDUxNmd9Kcons-11" value="MyChart&lt;br&gt;Links" style="text;html=1;align=center;verticalAlign=middle;resizable=0;points=[];autosize=1;strokeColor=none;fillColor=none;" vertex="1" parent="1">
          <mxGeometry x="580" y="299.44" width="70" height="40" as="geometry" />
        </mxCell>
        <mxCell id="qnYkJQ-oDUxNmd9Kcons-12" value="Data&lt;br&gt;Forwarding" style="text;html=1;align=center;verticalAlign=middle;resizable=0;points=[];autosize=1;strokeColor=none;fillColor=none;" vertex="1" parent="1">
          <mxGeometry x="470" y="420" width="80" height="40" as="geometry" />
        </mxCell>
        <mxCell id="qnYkJQ-oDUxNmd9Kcons-13" value="User&lt;br&gt;Verification" style="text;html=1;align=center;verticalAlign=middle;resizable=0;points=[];autosize=1;strokeColor=none;fillColor=none;" vertex="1" parent="1">
          <mxGeometry x="280" y="420" width="80" height="40" as="geometry" />
        </mxCell>
        <mxCell id="qnYkJQ-oDUxNmd9Kcons-14" value="Data &lt;br&gt;Encryption" style="text;html=1;align=center;verticalAlign=middle;resizable=0;points=[];autosize=1;strokeColor=none;fillColor=none;" vertex="1" parent="1">
          <mxGeometry x="560" y="420" width="80" height="40" as="geometry" />
        </mxCell>
        <mxCell id="qnYkJQ-oDUxNmd9Kcons-15" value="Synching &lt;br&gt;Coordinates" style="text;html=1;align=center;verticalAlign=middle;resizable=0;points=[];autosize=1;strokeColor=none;fillColor=none;" vertex="1" parent="1">
          <mxGeometry x="370" y="420" width="90" height="40" as="geometry" />
        </mxCell>
        <mxCell id="qnYkJQ-oDUxNmd9Kcons-16" value="Client Database" style="text;html=1;align=center;verticalAlign=middle;resizable=0;points=[];autosize=1;strokeColor=none;fillColor=none;" vertex="1" parent="1">
          <mxGeometry x="410" y="635" width="110" height="30" as="geometry" />
        </mxCell>
        <mxCell id="qnYkJQ-oDUxNmd9Kcons-18" value="" style="rounded=0;whiteSpace=wrap;html=1;shadow=1;glass=0;" vertex="1" parent="1">
          <mxGeometry x="270" y="500" width="390" height="80" as="geometry" />
        </mxCell>
        <mxCell id="qnYkJQ-oDUxNmd9Kcons-19" value="MySQL" style="text;html=1;align=center;verticalAlign=middle;resizable=0;points=[];autosize=1;strokeColor=none;fillColor=none;" vertex="1" parent="1">
          <mxGeometry x="360" y="525" width="60" height="30" as="geometry" />
        </mxCell>
        <mxCell id="qnYkJQ-oDUxNmd9Kcons-20" value="BSD&lt;br&gt;Socket&lt;br&gt;Interface" style="text;html=1;align=center;verticalAlign=middle;resizable=0;points=[];autosize=1;strokeColor=none;fillColor=none;" vertex="1" parent="1">
          <mxGeometry x="500" y="510" width="70" height="60" as="geometry" />
        </mxCell>
        <mxCell id="qnYkJQ-oDUxNmd9Kcons-21" value="AWS&lt;br&gt;Database&lt;br&gt;Services" style="text;html=1;align=center;verticalAlign=middle;resizable=0;points=[];autosize=1;strokeColor=none;fillColor=none;" vertex="1" parent="1">
          <mxGeometry x="425" y="510" width="70" height="60" as="geometry" />
        </mxCell>
        <mxCell id="qnYkJQ-oDUxNmd9Kcons-22" value="Menu-Driven&lt;br&gt;Interface" style="text;html=1;align=center;verticalAlign=middle;resizable=0;points=[];autosize=1;strokeColor=none;fillColor=none;" vertex="1" parent="1">
          <mxGeometry x="490" y="180" width="90" height="40" as="geometry" />
        </mxCell>
      </root>
    </mxGraphModel>
  </diagram>
</mxfile>
